<svg width="23" height="21" viewBox="0 0 23 21" fill="none" xmlns="http://www.w3.org/2000/svg">
<path d="M6.5 4.422V4C6.5 2.586 6.5 1.879 6.94 1.44C7.378 1 8.085 1 9.5 1C10.915 1 11.621 1 12.06 1.44C12.5 1.878 12.5 2.585 12.5 4V6H6.5V4.5" stroke="white" stroke-width="1.5" stroke-linecap="round" stroke-linejoin="round"/>
<path d="M6.5 3.99996C7.052 3.99996 7.5 4.05196 7.5 3.49996C7.5 2.94796 7.052 2.99996 6.5 2.99996M9.5 5.99996C5.082 5.99996 1.5 9.35596 1.5 13.495C1.5 15.41 2.266 17.157 3.528 18.482C3.978 18.955 4.203 19.191 5.146 19.596C6.09 20 6.74 20 8.042 20H10.958C12.26 20 12.91 20 13.854 19.596C14.797 19.191 15.022 18.955 15.473 18.482C16.733 17.157 17.5 15.41 17.5 13.495C17.5 9.35496 13.918 5.99996 9.5 5.99996Z" stroke="white" stroke-width="1.5"/>
<path d="M2 12C3.435 12.58 5.143 13.73 7.36 13.98C10.356 14.318 11.924 11.824 14.898 12.318C15.946 12.492 16.923 12.792 17.5 13.112" stroke="white" stroke-width="1.5" stroke-linecap="round"/>
<path d="M13 4H13.82C14.5962 4.00005 15.3618 4.18082 16.056 4.528L17 5" stroke="white" stroke-width="1.5"/>
<path d="M20 4.24994C21.196 4.93994 21.717 6.27494 21.165 7.23194C20.613 8.18794 19.195 8.40394 18 7.71394C16.805 7.02394 16.283 5.68794 16.835 4.73194C17.387 3.77594 18.805 3.55894 20 4.24994Z" stroke="white" stroke-width="1.5"/>
</svg>
