<svg width="22" height="22" viewBox="0 0 22 22" fill="none" xmlns="http://www.w3.org/2000/svg">
<path d="M1.5 11.0002C1.5 6.52224 1.5 4.28224 2.891 2.89124C4.282 1.50024 6.521 1.50024 11 1.50024C15.478 1.50024 17.718 1.50024 19.109 2.89124C20.5 4.28224 20.5 6.52124 20.5 11.0002C20.5 15.4782 20.5 17.7182 19.109 19.1092C17.718 20.5002 15.479 20.5002 11 20.5002C6.522 20.5002 4.282 20.5002 2.891 19.1092C1.5 17.7182 1.5 15.4792 1.5 11.0002Z" stroke="white" stroke-width="1.5" stroke-linecap="round" stroke-linejoin="round"/>
<path d="M16.508 5.50024H16.498M15.5 11.0002C15.5 12.1937 15.0259 13.3383 14.182 14.1822C13.3381 15.0261 12.1935 15.5002 11 15.5002C9.80653 15.5002 8.66193 15.0261 7.81802 14.1822C6.97411 13.3383 6.5 12.1937 6.5 11.0002C6.5 9.80677 6.97411 8.66218 7.81802 7.81826C8.66193 6.97435 9.80653 6.50024 11 6.50024C12.1935 6.50024 13.3381 6.97435 14.182 7.81826C15.0259 8.66218 15.5 9.80677 15.5 11.0002Z" stroke="white" stroke-width="1.5" stroke-linecap="round" stroke-linejoin="round"/>
</svg>
