<svg width="21" height="21" viewBox="0 0 21 21" fill="none" xmlns="http://www.w3.org/2000/svg">
<g clip-path="url(#clip0_15_992)">
<path d="M5.33333 8.83331C5 7.83331 4.08333 7.16665 3 7.16665C1.58333 7.16665 0.5 8.24998 0.5 9.66665C0.5 11.0833 1.58333 12.1666 3 12.1666C4.08333 12.1666 5 11.5 5.33333 10.5H6.33333V12.1666H8V10.5H9.66667V8.83331H5.33333ZM3 10.5C2.5 10.5 2.16667 10.1666 2.16667 9.66665C2.16667 9.16665 2.5 8.83331 3 8.83331C3.5 8.83331 3.83333 9.16665 3.83333 9.66665C3.83333 10.1666 3.5 10.5 3 10.5ZM13.8333 3.83331C12 3.83331 10.5 5.33331 10.5 7.16665C10.5 8.99998 12 10.5 13.8333 10.5C15.6667 10.5 17.1667 8.99998 17.1667 7.16665C17.1667 5.33331 15.6667 3.83331 13.8333 3.83331ZM13.8333 8.91665C12.8333 8.91665 12.0833 8.16665 12.0833 7.16665C12.0833 6.16665 12.8333 5.41665 13.8333 5.41665C14.8333 5.41665 15.5833 6.16665 15.5833 7.16665C15.5833 8.16665 14.8333 8.91665 13.8333 8.91665ZM13.8333 11.3333C11.5833 11.3333 7.16667 12.4166 7.16667 14.6666V17.1666H20.5V14.6666C20.5 12.4166 16.0833 11.3333 13.8333 11.3333ZM18.9167 15.5833H8.75V14.6666C8.75 14.1666 11.3333 12.9166 13.8333 12.9166C16.3333 12.9166 18.9167 14.1666 18.9167 14.6666V15.5833Z" fill="#34231F"/>
</g>
<defs>
<clipPath id="clip0_15_992">
<rect width="20" height="20" fill="white" transform="translate(0.5 0.5)"/>
</clipPath>
</defs>
</svg>
