<svg width="25" height="25" viewBox="0 0 25 25" fill="none" xmlns="http://www.w3.org/2000/svg">
<g clip-path="url(#clip0_29_318)">
<path d="M5.5 6.5C5.5 6.23478 5.39464 5.98043 5.20711 5.79289C5.01957 5.60536 4.76522 5.5 4.5 5.5C4.23478 5.5 3.98043 5.60536 3.79289 5.79289C3.60536 5.98043 3.5 6.23478 3.5 6.5V18.5C3.5 18.7652 3.60536 19.0196 3.79289 19.2071C3.98043 19.3946 4.23478 19.5 4.5 19.5C4.76522 19.5 5.01957 19.3946 5.20711 19.2071C5.39464 19.0196 5.5 18.7652 5.5 18.5V6.5ZM13.203 17.45C13.296 17.3571 13.3697 17.2468 13.4201 17.1254C13.4704 17.004 13.4963 16.8739 13.4963 16.7425C13.4963 16.6111 13.4704 16.481 13.4201 16.3596C13.3697 16.2382 13.296 16.1279 13.203 16.035L10.667 13.5H20.5C20.7652 13.5 21.0196 13.3946 21.2071 13.2071C21.3946 13.0196 21.5 12.7652 21.5 12.5C21.5 12.2348 21.3946 11.9804 21.2071 11.7929C21.0196 11.6054 20.7652 11.5 20.5 11.5H10.667L13.203 8.964C13.3905 8.77636 13.4958 8.52192 13.4957 8.25665C13.4956 7.99138 13.3901 7.73701 13.2025 7.5495C13.0149 7.36199 12.7604 7.2567 12.4951 7.2568C12.2299 7.25689 11.9755 7.36236 11.788 7.55L7.546 11.793C7.35853 11.9805 7.25321 12.2348 7.25321 12.5C7.25321 12.7652 7.35853 13.0195 7.546 13.207L11.788 17.45C11.8809 17.543 11.9912 17.6167 12.1126 17.6671C12.234 17.7174 12.3641 17.7433 12.4955 17.7433C12.6269 17.7433 12.757 17.7174 12.8784 17.6671C12.9998 17.6167 13.1101 17.543 13.203 17.45Z" fill="white"/>
</g>
<defs>
<clipPath id="clip0_29_318">
<rect width="24" height="24" fill="white" transform="translate(0.5 0.5)"/>
</clipPath>
</defs>
</svg>
